<svg width="24" height="23" viewBox="0 0 24 23" fill="none" xmlns="http://www.w3.org/2000/svg">
<path d="M3.71484 0.140625C2.84766 0.369141 2.19727 0.738281 1.5 1.40039C0.814453 2.0625 0.339844 2.88281 0.117188 3.82031C0.00585938 4.28906 0 4.51758 0 11.25C0 17.9824 0.00585938 18.2109 0.117188 18.6797C0.339844 19.6172 0.826172 20.4551 1.5293 21.1289C2.20898 21.7734 2.93555 22.1719 3.82031 22.3828C4.28906 22.4941 4.51758 22.5 11.25 22.5C17.9824 22.5 18.2109 22.4941 18.6797 22.3828C19.6172 22.1602 20.4551 21.6738 21.1289 20.9707C21.7734 20.291 22.1719 19.5645 22.3828 18.6797C22.4941 18.2227 22.5 17.9883 22.5 14.6309C22.5 11.4668 22.4883 11.0449 22.4062 10.8809C22.1426 10.3652 21.5918 10.084 21.0234 10.1719C20.7012 10.2246 20.2793 10.5293 20.1328 10.8105C20.0156 11.0391 20.0098 11.1504 19.9805 14.5312C19.9512 18.0059 19.9512 18.0176 19.8164 18.3574C19.5586 18.9961 18.9961 19.5586 18.3516 19.8164L18.0176 19.9512H11.25H4.48242L4.14258 19.8164C3.50391 19.5586 2.94141 18.9961 2.68359 18.3516L2.54883 18.0176V11.25V4.48242L2.68359 4.14258C2.94141 3.50391 3.50391 2.94141 4.14258 2.68945L4.48242 2.54883L8.09766 2.51953L11.707 2.49023L11.9648 2.31445C12.7559 1.75195 12.6855 0.550781 11.8301 0.117188C11.6133 0.00585938 11.4785 0 7.92773 0C4.25977 0.00585938 4.24805 0.00585938 3.71484 0.140625Z" fill="#787474"/>
<path d="M21.9728 1.32422C21.8381 1.37695 19.922 3.25781 16.5119 6.66797L11.2502 11.9238L9.12908 9.80273C7.9572 8.64258 6.91423 7.64062 6.8029 7.58789C6.49822 7.43555 5.98259 7.45312 5.64275 7.62305C5.24431 7.82812 5.02165 8.16211 4.99236 8.61328C4.94548 9.26953 4.88103 9.19336 7.89275 12.1992C10.6056 14.9004 10.6408 14.9297 10.9455 14.9941C11.1623 15.041 11.3381 15.041 11.5607 14.9941L11.8654 14.9297L17.7131 9.09375C20.9299 5.87695 23.6017 3.18164 23.6486 3.09375C23.9709 2.48438 23.6779 1.62305 23.0627 1.3418C22.7697 1.20703 22.2599 1.20117 21.9728 1.32422Z" fill="#787474"/>
</svg>
