<svg width="50" height="50" viewBox="0 0 50 50" fill="none" xmlns="http://www.w3.org/2000/svg">
<path d="M28.6093 8.0359C28.489 8.05309 28.0507 8.11324 27.621 8.16481C25.0601 8.48277 22.0694 9.69449 19.8866 11.3187C18.9757 11.9976 17.5405 13.364 16.8187 14.232L16.3116 14.8593H12.3155C7.98428 14.8593 7.9585 14.8593 7.74365 15.332C7.61475 15.6156 7.61475 15.8218 7.74365 16.1054C7.9499 16.5695 8.02725 16.5781 11.7569 16.5781H15.1944L14.8077 17.3257C14.5929 17.7468 14.3007 18.4 14.1546 18.7867L13.8882 19.5H8.7835C3.24053 19.5 3.31787 19.4914 3.10303 19.9726C2.97412 20.2562 2.97412 20.4625 3.10303 20.7461C3.31787 21.2273 3.26631 21.2187 8.55146 21.2187C12.7194 21.2187 13.4069 21.2359 13.3726 21.339C13.3296 21.4507 13.1233 22.7828 13.0116 23.7281L12.9601 24.1406H11.2413C9.36787 24.1406 9.13584 24.1921 8.94678 24.6132C8.80928 24.9054 8.81787 25.1289 8.96396 25.4211C9.17021 25.8164 9.39365 25.8593 11.2499 25.8593H12.9601L13.003 26.2203C13.0288 26.4265 13.089 26.9336 13.1491 27.3632C13.364 29.0648 14.1374 31.4968 14.9108 32.8804L15.2116 33.4218H9.44521C3.18896 33.4218 3.31787 33.4132 3.10303 33.8945C2.89678 34.3328 3.06865 34.857 3.47256 35.0375C3.63584 35.1148 5.29443 35.1406 10.0038 35.1406H16.3116L16.8187 35.7679C17.4976 36.5843 18.9499 37.9851 19.7663 38.5953C21.9921 40.2625 24.4843 41.3195 27.3632 41.8179C28.5491 42.0242 31.4022 42.0242 32.6054 41.8093C35.4155 41.3281 37.8046 40.3312 40.0561 38.707C40.9327 38.0711 42.9351 36.0945 43.5796 35.2265C46.6647 31.05 47.7304 25.7562 46.4757 20.832C45.9257 18.7007 44.8944 16.5437 43.5882 14.7992C42.9608 13.957 41.5601 12.4961 40.7608 11.8429C38.4405 9.9523 35.6562 8.69762 32.6483 8.19918C31.8749 8.07027 29.0647 7.94996 28.6093 8.0359ZM31.5999 9.79762C40.4343 10.7687 46.6132 19.0187 45.0233 27.7328C43.3905 36.6703 34.2897 42.2562 25.6187 39.6437C18.546 37.5039 13.9827 30.6546 14.7819 23.3843C15.5726 16.1398 21.3132 10.4851 28.6093 9.76324C29.2968 9.69449 30.8179 9.71168 31.5999 9.79762Z" fill="#322C2A"/>
<path d="M28.7381 11.7311C26.5381 11.9717 24.3982 12.7452 22.5076 14.0084C21.4592 14.7045 19.7318 16.4233 19.01 17.4803C17.9873 19.0014 17.2654 20.7288 16.9045 22.5334C16.6295 23.9084 16.6295 26.0913 16.9045 27.4663C17.4459 30.1905 18.6318 32.3905 20.6084 34.3756C22.6107 36.3694 24.8881 37.5811 27.6639 38.1139C28.9014 38.3459 31.1787 38.3288 32.4506 38.0795C35.1748 37.5381 37.3748 36.3522 39.36 34.3756C41.3537 32.3733 42.5654 30.0959 43.0982 27.3202C43.3303 26.0827 43.3131 23.8053 43.0639 22.5334C42.5225 19.8092 41.3365 17.6092 39.36 15.6241C37.3834 13.6561 35.1576 12.453 32.5021 11.9374C31.5998 11.7569 29.5287 11.6452 28.7381 11.7311ZM32.124 13.6131C34.4787 14.0686 36.4381 15.117 38.1568 16.8272C39.8326 18.5116 40.8381 20.3678 41.3451 22.7053C41.6115 23.9514 41.6115 26.0483 41.3451 27.2944C40.8381 29.6319 39.8326 31.4795 38.1482 33.1639C36.4639 34.8483 34.6162 35.8538 32.2787 36.3608C31.0326 36.6272 28.9357 36.6272 27.6896 36.3608C25.4982 35.8881 23.6248 34.9084 22.0178 33.3874C20.3334 31.7975 19.2076 29.8124 18.6662 27.4663C18.4686 26.6241 18.4342 26.3233 18.4342 24.9999C18.4342 23.6764 18.4686 23.3756 18.6662 22.5334C19.8006 17.6608 23.6162 14.1717 28.5662 13.4928C29.3826 13.3811 31.2389 13.4413 32.124 13.6131Z" fill="#322C2A"/>
<path d="M29.5375 16.1226C28.9789 16.4663 29.0132 17.3257 29.5976 17.5921C30.0359 17.7898 30.5171 17.6523 30.7234 17.257C30.8781 16.939 30.8781 16.6984 30.6976 16.4062C30.4484 15.9851 29.9585 15.8648 29.5375 16.1226Z" fill="#322C2A"/>
<path d="M26.9935 21.6055C26.6583 21.7516 26.4521 22.1727 26.5294 22.5508C26.5552 22.7227 26.856 23.0922 27.4232 23.6766L28.274 24.5531L28.2997 25.0602C28.3599 26.5727 30.1216 27.2688 31.1958 26.1945L31.531 25.8594H34.9771H38.4232L38.7154 25.5672C38.9216 25.3524 39.0075 25.1977 39.0075 25C39.0075 24.8024 38.9216 24.6477 38.7154 24.4328L38.4232 24.1406H34.9427H31.4622L31.3333 23.9344C31.0927 23.5734 30.6029 23.3328 30.0443 23.3156L29.5372 23.2899L28.6521 22.4305C28.1622 21.9492 27.7068 21.5625 27.6294 21.5625C27.5607 21.5625 27.4575 21.5453 27.3888 21.5195C27.3286 21.5024 27.1482 21.5367 26.9935 21.6055Z" fill="#322C2A"/>
<path d="M21.253 24.4328C20.8577 24.8281 20.8577 25.1719 21.253 25.5672C21.5624 25.8765 21.8288 25.9281 22.2069 25.7562C22.7999 25.4898 22.8171 24.5617 22.2413 24.2609C21.8546 24.0633 21.571 24.1148 21.253 24.4328Z" fill="#322C2A"/>
<path d="M29.5635 32.4248C28.9963 32.7428 28.9877 33.5506 29.5549 33.8771C29.9846 34.1349 30.4487 34.0146 30.6979 33.5935C31.1448 32.8373 30.3369 31.9951 29.5635 32.4248Z" fill="#322C2A"/>
<path d="M3.4384 28.9016C2.86262 29.2196 2.8798 30.1305 3.47277 30.3969C3.82512 30.5602 8.60324 30.543 8.92121 30.3797C9.4884 30.0789 9.4884 29.2024 8.92121 28.9016C8.58605 28.7297 3.74777 28.7297 3.4384 28.9016Z" fill="#322C2A"/>
</svg>
