<svg width="50" height="50" viewBox="0 0 50 50" fill="none" xmlns="http://www.w3.org/2000/svg">
<path d="M0.927564 0.136742C0.00959536 0.537132 -0.283373 1.78713 0.361158 2.54885C0.800611 3.06643 1.07405 3.12502 2.97835 3.12502H4.68733V4.51174V5.90823L4.15022 6.19143C3.48616 6.53323 2.89046 7.16799 2.55842 7.89065C2.29475 8.44729 2.29475 8.45705 2.26546 11.1817C2.22639 14.2969 2.27522 14.6485 2.83186 15.5176C3.58381 16.6797 4.6678 17.1875 6.38655 17.1875C7.00178 17.1875 7.58772 17.1289 7.91975 17.0313C8.93538 16.7383 9.88264 15.8985 10.2928 14.9121L10.449 14.5313L12.6658 14.5703C14.824 14.5996 14.9119 14.6094 15.4295 14.8535C15.9471 15.0977 16.8358 15.8789 16.7479 16.0156C16.7283 16.0547 14.8729 17.1485 12.6268 18.4668C9.00374 20.586 8.47639 20.9278 7.86116 21.5332C7.47053 21.9239 7.04085 22.4707 6.8553 22.8223C6.46467 23.5645 6.15217 24.7461 6.15217 25.4981C6.15217 26.0449 7.70491 35.7227 7.90999 36.4453C8.1053 37.1485 8.92561 37.6074 9.73616 37.4512C10.1951 37.3633 10.8006 36.7578 10.8885 36.2891C10.9373 36.0742 10.6639 34.1602 10.0975 30.752C9.14046 24.9414 9.15022 24.9707 9.75569 24.0821C10.0975 23.584 10.1854 23.5254 14.5994 20.9473C16.3182 19.9414 17.9588 18.9746 18.2518 18.7989L18.7791 18.4864L19.4237 18.9649C20.2342 19.5703 21.3768 20.127 22.5096 20.4688C23.6522 20.8008 25.6248 20.8985 26.8065 20.6739C28.2811 20.3906 29.9315 19.6387 31.0643 18.7403L31.3084 18.5449L35.5076 21.0059C37.8123 22.3535 39.8143 23.5645 39.951 23.6914C40.283 24.0137 40.6151 24.6778 40.6834 25.2051C40.7225 25.5078 40.4979 27.1289 39.8924 30.791C39.3358 34.1992 39.0623 36.0645 39.1112 36.2891C39.1991 36.7578 39.7948 37.3633 40.2635 37.4512C41.0741 37.6074 41.8944 37.1485 42.0897 36.4453C42.2948 35.7227 43.8475 26.0449 43.8475 25.4981C43.8475 24.2676 43.2713 22.7735 42.4315 21.8067C41.7967 21.084 41.4647 20.8692 37.2557 18.4082C35.1658 17.1875 33.408 16.1524 33.3592 16.1133C33.203 15.9668 34.0623 15.166 34.6971 14.8828C35.3026 14.5996 35.3123 14.5996 37.5682 14.5703L39.8241 14.5313L40.0194 14.961C40.4881 15.9864 41.2596 16.6797 42.3045 17.0117C43.0565 17.2364 44.658 17.2559 45.4198 17.0313C46.4647 16.7285 47.3924 15.8887 47.8221 14.8438C47.9783 14.4531 47.9979 14.0918 47.9979 11.4258V8.44729L47.6756 7.79299C47.2948 7.01174 46.6112 6.36721 45.8494 6.04494L45.3123 5.82034V4.48244V3.13479L47.158 3.10549C48.8475 3.07619 49.033 3.05666 49.2772 2.87112C49.7948 2.49026 49.951 2.17776 49.951 1.56252C49.951 0.947289 49.7948 0.634789 49.2772 0.253929C49.0135 0.048851 48.9061 0.048851 43.7498 0.048851C38.5936 0.048851 38.4862 0.048851 38.2225 0.253929C37.7049 0.634789 37.5487 0.947289 37.5487 1.56252C37.5487 2.17776 37.7049 2.49026 38.2225 2.87112C38.4666 3.05666 38.6522 3.07619 40.3416 3.10549L42.1873 3.13479V4.52151V5.90823L41.6502 6.19143C41.0057 6.52346 40.3221 7.24612 40.078 7.86135L39.8924 8.3008H37.6366C35.8983 8.3008 35.283 8.27151 34.9705 8.15432C34.2381 7.90041 33.7303 7.44143 33.0662 6.44534C31.6014 4.2676 29.5018 2.83205 27.0018 2.29494C25.7713 2.02151 23.9256 2.06057 22.7147 2.38284C20.3905 2.9883 18.5057 4.33596 17.158 6.34768C16.5135 7.31448 16.1619 7.6758 15.576 7.9883C15.0877 8.25198 15.0682 8.25198 12.744 8.28127L10.4002 8.31057L10.2147 7.84182C9.951 7.18752 9.08186 6.34768 8.37874 6.05471L7.81233 5.82034V4.48244V3.13479L9.65803 3.10549C11.3475 3.07619 11.533 3.05666 11.7772 2.87112C12.2948 2.49026 12.451 2.17776 12.451 1.56252C12.451 0.947289 12.2948 0.634789 11.7772 0.253929C11.5135 0.048851 11.3865 0.048851 6.36702 0.0293198C2.23616 0.00978851 1.16194 0.0293198 0.927564 0.136742Z" fill="#9DB3C0"/>
<path d="M22.7735 25.9862C21.6797 26.533 20.8203 27.0115 20.8692 27.0506C20.9082 27.0897 23.4571 28.408 26.5137 29.9803L32.0801 32.8318L34.3262 31.7186L36.5625 30.5955L31.0059 27.8416C27.8516 26.2694 25.293 25.0682 25.0977 25.0389C24.8242 25.0096 24.3848 25.1951 22.7735 25.9862Z" fill="#9DB3C0"/>
<path d="M16.0452 29.3263L13.4866 30.6056L19.2483 33.4669L25.0198 36.3184L27.4612 35.0977L29.9123 33.8673L28.7502 33.2618C28.1155 32.9298 26.0061 31.8458 24.0725 30.8692C22.1389 29.8829 20.1174 28.8477 19.5803 28.5645L18.6038 28.047L16.0452 29.3263Z" fill="#9DB3C0"/>
<path d="M12.5 37.9003C12.5 42.6464 12.5195 43.6132 12.6367 43.8378C12.7539 44.0624 13.8379 44.6581 18.3887 47.0312L23.9941 49.9608L24.0527 44.0038C24.0918 40.7226 24.082 38.0175 24.043 37.9784C24.0039 37.9394 21.3965 36.6308 18.2422 35.078L12.5 32.246V37.9003Z" fill="#9DB3C0"/>
<path d="M35.156 33.3986L32.8611 34.5509L32.8123 36.8165L32.7634 39.0822L32.49 39.3165C32.0994 39.6486 31.6111 39.629 31.24 39.2677L30.9568 38.9845V37.2658C30.9568 36.3185 30.9373 35.547 30.908 35.547C30.8787 35.547 29.7361 36.0939 28.3787 36.7579L25.8982 37.9591L25.947 43.9064C25.9666 47.1779 25.9958 49.8732 26.0056 49.9122C26.0251 49.9513 27.8318 49.0236 35.283 45.1271C36.7771 44.3458 37.2458 44.0529 37.363 43.838C37.4802 43.6036 37.4997 42.715 37.4802 37.9103L37.4509 32.2462L35.156 33.3986Z" fill="#9DB3C0"/>
</svg>
