<svg width="50" height="50" viewBox="0 0 50 50" fill="none" xmlns="http://www.w3.org/2000/svg">
<path d="M5.5469 5.05469C4.91408 5.28906 4.84377 6.28125 5.43752 6.55469C5.56252 6.60938 6.25783 6.64062 7.38283 6.64062H9.14065V8.30469V9.97656L8.72658 10.0703C8.21877 10.1797 7.57033 10.6016 7.26565 11.0234C6.82033 11.6484 6.78908 11.875 6.81252 14.3125C6.83596 16.4531 6.84377 16.5391 7.02346 16.8906C7.26565 17.3906 7.76565 17.875 8.28127 18.1172C8.69533 18.3125 8.76565 18.3203 10.1172 18.3203C11.4922 18.3203 11.5313 18.3125 11.961 18.1094C12.4766 17.8516 12.9766 17.375 13.1719 16.9375L13.3125 16.625L15.1094 16.6562C16.8672 16.6797 16.9219 16.6875 17.3438 16.8828C17.5781 17 17.8906 17.2109 18.0391 17.3516C18.3906 17.7031 18.8594 18.4375 18.7735 18.5156C18.7422 18.5469 17.2266 19.4453 15.4063 20.5078C13.4844 21.6328 11.9375 22.5859 11.7031 22.8047C10.9375 23.4922 10.4688 24.4453 10.3516 25.5469C10.3125 25.9766 10.4063 26.6875 10.9688 30.0781C11.336 32.2891 11.6719 34.2344 11.7188 34.3984C11.8125 34.7188 12.1641 35 12.4844 35C12.7891 35 13.1328 34.7734 13.25 34.4922C13.3516 34.2422 13.3125 33.9375 12.6875 30.2188C11.9375 25.7109 11.9141 25.4219 12.2969 24.7109C12.4219 24.4922 12.625 24.2031 12.7656 24.0781C12.9453 23.8984 18.8516 20.3672 19.8203 19.8594C19.9688 19.7734 20.0547 19.8125 20.5235 20.1641C21.1797 20.6562 22.086 21.0938 23.0078 21.375C23.6563 21.5781 23.8203 21.5938 25.0391 21.5938C26.0625 21.6016 26.4766 21.5703 26.8516 21.4688C27.7344 21.2266 28.5469 20.8672 29.1719 20.4531C29.5156 20.2266 29.8672 19.9922 29.961 19.9297C30.1172 19.8281 30.3594 19.9531 33.5625 21.8281C35.4453 22.9375 37.1016 23.9453 37.2344 24.0781C37.375 24.2031 37.5781 24.4922 37.7031 24.7109C38.086 25.4219 38.0625 25.7109 37.3125 30.2188C36.6875 33.9375 36.6485 34.2422 36.75 34.4922C36.8672 34.7734 37.211 35 37.5156 35C37.836 35 38.1875 34.7188 38.2813 34.3984C38.3281 34.2344 38.6641 32.2891 39.0313 30.0781C39.7656 25.6562 39.7735 25.5469 39.4141 24.5078C39.3125 24.2188 39.125 23.8047 38.9844 23.5938C38.4922 22.8281 37.9844 22.4688 34.5625 20.4766C32.7578 19.4297 31.2735 18.5625 31.2578 18.5469C31.211 18.5 31.8594 17.5469 32.086 17.3281C32.211 17.2109 32.5156 17.0234 32.7735 16.8984L33.2422 16.6797H35.0703H36.8985L37.0781 16.9922C37.336 17.4609 37.7969 17.8906 38.2813 18.1172C38.6953 18.3125 38.7656 18.3203 40.1172 18.3203C41.4922 18.3203 41.5313 18.3125 41.961 18.1094C42.4922 17.8438 42.9141 17.4297 43.1875 16.9141L43.3985 16.5234V14.1797C43.3985 11.8516 43.3985 11.8359 43.211 11.4453C42.8203 10.6641 42.0781 10.125 41.25 10.0234L40.8594 9.97656V8.3125V6.64062H42.6172C43.7422 6.64062 44.4375 6.60938 44.5625 6.55469C45.0313 6.33594 45.1172 5.60156 44.7188 5.22656L44.5156 5.03906H40H35.4844L35.2813 5.22656C34.8828 5.60156 34.9688 6.33594 35.4375 6.55469C35.5625 6.60938 36.2578 6.64062 37.3828 6.64062H39.1406V8.30469V9.97656L38.7266 10.0703C38.0313 10.2266 37.1719 10.9297 36.9922 11.4922C36.9453 11.6328 36.8438 11.6406 35.125 11.6406C33.7188 11.6406 33.2266 11.6172 32.9766 11.5234C32.3906 11.3203 31.9766 10.9453 31.4375 10.1484C30.2813 8.41406 28.5938 7.25781 26.6016 6.83594C25.6172 6.61719 24.1406 6.64844 23.1719 6.90625C21.3047 7.39062 19.8047 8.46094 18.7266 10.0781C18.211 10.8516 17.9297 11.1406 17.461 11.3906C17.0703 11.6016 17.0547 11.6016 15.1953 11.625L13.3203 11.6484L13.086 11.2422C12.6797 10.5469 11.8047 10 11.0781 10H10.8594V8.32031V6.64062H12.6172C13.7422 6.64062 14.4375 6.60938 14.5625 6.55469C15.0313 6.33594 15.1172 5.60156 14.7188 5.22656L14.5156 5.03906L10.0938 5.02344C7.65627 5.01562 5.6094 5.03125 5.5469 5.05469ZM26.9141 8.625C28.2422 9.07031 29.2578 9.88281 30.1172 11.1797C30.8594 12.2812 31.4453 12.7656 32.5 13.1328C32.961 13.2891 33.1875 13.3125 34.8281 13.3438L36.6406 13.375V14.1875V15H34.9844C33.1406 15 32.6563 15.0781 31.8828 15.4609C31.2422 15.7891 30.6328 16.375 30.1094 17.1719C28.836 19.1172 26.8672 20.1172 24.625 19.9766C22.7188 19.8516 21.1406 18.875 19.9531 17.0938C19.2813 16.0938 18.6641 15.5781 17.6875 15.2188C17.2735 15.0703 17.0313 15.0469 15.336 15.0156L13.4375 14.9844V14.1797V13.375L15.2578 13.3438C16.836 13.3125 17.1328 13.2812 17.586 13.1406C18.5 12.8438 19.4297 12.1016 19.9219 11.2891C20.4844 10.3516 21.2422 9.60938 22.1875 9.07812C23.1563 8.53125 23.9453 8.35156 25.2735 8.39062C26.125 8.41406 26.3906 8.44531 26.9141 8.625ZM11.3047 11.7578C11.7656 11.9531 11.8047 12.1719 11.7813 14.3125L11.7578 16.1875L11.5 16.4141L11.25 16.6406H10.1172H8.9844L8.7344 16.4141L8.47658 16.1875L8.45315 14.2656C8.42971 12.125 8.46096 11.9609 8.92971 11.7578C9.28127 11.6094 10.9453 11.6094 11.3047 11.7578ZM41.3047 11.7578C41.7656 11.9531 41.8047 12.1719 41.7813 14.3125L41.7578 16.1875L41.5 16.4141L41.25 16.6406H40.1172H38.9844L38.7344 16.4141L38.4766 16.1875L38.4531 14.2656C38.4297 12.125 38.461 11.9609 38.9297 11.7578C39.2813 11.6094 40.9453 11.6094 41.3047 11.7578Z" fill="#322C2A"/>
<path d="M22.6953 25.9766C21.5391 26.5234 20.3594 27.0703 20.0781 27.2031C19.7969 27.3359 18.625 27.875 17.4609 28.4141C16.2188 28.9844 15.2813 29.4609 15.1797 29.5781L15 29.7734V34.9453C15 39.8516 15.0078 40.1328 15.1484 40.3516C15.2734 40.5547 16 40.9141 20.0469 42.7891C22.6641 44.0078 24.8984 45 25.0078 45C25.1172 45 26.1328 44.5703 27.2656 44.0391C28.4063 43.5078 30.5469 42.5156 32.0234 41.8359C34.2734 40.7891 34.7344 40.5469 34.8594 40.3516C34.9922 40.1328 35 39.8281 35 34.9453V29.7734L34.8281 29.5781C34.6094 29.3359 25.4844 25.0781 25.0781 25.0312C24.8516 25 24.4297 25.1719 22.6953 25.9766ZM28.6016 28.4141C30.5313 29.3125 32.1094 30.0625 32.1094 30.0859C32.1094 30.1094 31.6328 30.3516 31.0469 30.6172L29.9922 31.1094L26.4844 29.4453C24.5547 28.5234 22.9766 27.7578 22.9688 27.7344C22.9688 27.6797 24.8594 26.8047 24.9922 26.8047C25.0547 26.7969 26.6797 27.5234 28.6016 28.4141ZM24.5234 30.3516C26.4141 31.25 27.9375 32.0156 27.9063 32.0469C27.875 32.0781 27.2109 32.4062 26.4219 32.7656L25 33.4297L21.4453 31.7734C19.4922 30.8672 17.9219 30.0938 17.9531 30.0625C18.0781 29.9375 20.8281 28.6797 20.9531 28.6953C21.0234 28.7031 22.6328 29.4453 24.5234 30.3516ZM20.4609 33.1562L24.1406 34.8672V38.8438C24.1406 41.0234 24.125 42.8125 24.1094 42.8125C24.0781 42.8125 21.3906 41.5703 17.5781 39.7969L16.6797 39.3828L16.6563 35.3828C16.6484 33.0156 16.6719 31.4062 16.7109 31.4219C16.75 31.4297 18.4375 32.2188 20.4609 33.1562ZM33.3438 35.3984L33.3203 39.3828L29.6328 41.1016C27.6016 42.0391 25.9219 42.8125 25.8984 42.8125C25.875 42.8125 25.8594 41.0234 25.8594 38.8438V34.875L27.4844 34.1172L29.1016 33.3672L29.1406 34.7109C29.1797 36.1094 29.2188 36.2891 29.5469 36.5156C29.7734 36.6797 30.2266 36.6719 30.4609 36.5156C30.8125 36.2656 30.8594 35.9844 30.8594 34.2031V32.5391L32.0547 31.9844C32.7031 31.6719 33.2656 31.4219 33.3047 31.4141C33.3359 31.4062 33.3516 33.2031 33.3438 35.3984Z" fill="#322C2A"/>
</svg>
