<svg width="50" height="50" viewBox="0 0 50 50" fill="none" xmlns="http://www.w3.org/2000/svg">
<g clip-path="url(#clip0_559_3725)">
<path d="M12.2559 0.136688C11.4355 0.341766 10.8203 0.693329 10.1953 1.31833C9.23828 2.26559 8.88672 3.24216 8.88672 4.93161V5.85934H25H41.1133V4.93161C41.1133 3.25192 40.7617 2.27536 39.7949 1.30856C39.1602 0.673798 38.4668 0.283173 37.6172 0.107391C36.8359 -0.0586243 12.9199 -0.0293274 12.2559 0.136688Z" fill="#9DB3C0"/>
<path d="M8.88672 22.0215V35.2539H25H41.1133V22.0215V8.78903H25H8.88672V22.0215ZM20.0391 11.9238C20.8887 12.0996 21.582 12.4902 22.2168 13.125C23.125 14.0332 23.623 15.3418 23.5156 16.5039L23.4668 16.9922L23.8184 17.0605C24.2676 17.1582 25.7324 17.1582 26.1816 17.0605L26.5332 16.9922L26.4844 16.5039C26.377 15.3222 26.875 14.0234 27.7832 13.1347C29.541 11.3965 32.2168 11.3965 33.9355 13.125C34.6289 13.8183 35.0098 14.5605 35.1758 15.5371C35.4004 16.8164 34.9512 18.2422 34.0234 19.2383C33.2129 20.1074 31.6992 20.6933 30.5664 20.5859L30.0781 20.5371L30.0098 20.8886C29.9707 21.084 29.9316 21.6113 29.9316 22.0703C29.9316 22.5293 29.9707 23.0566 30.0098 23.2519L30.0781 23.6035L30.5664 23.5547C31.7383 23.4472 33.0371 23.9355 33.9355 24.8437C36.4551 27.373 35.0879 31.6406 31.5527 32.2461C30.1758 32.4804 28.8184 32.041 27.7832 31.0058C26.875 30.1074 26.377 28.8086 26.4844 27.6367L26.5332 27.1484L26.1816 27.08C25.7324 26.9824 24.2676 26.9824 23.8184 27.08L23.4668 27.1484L23.5156 27.6367C23.6133 28.7207 23.1152 30.0879 22.3047 30.957C22.0605 31.2109 21.5723 31.582 21.2012 31.7773C19.4434 32.6953 17.4707 32.4023 16.0645 31.0058C14.3262 29.2871 14.3262 26.5625 16.0645 24.8535C16.9824 23.9453 18.2715 23.4472 19.4336 23.5547L19.9219 23.6035L19.9902 23.2519C20.0293 23.0566 20.0684 22.5293 20.0684 22.0703C20.0684 21.6113 20.0293 21.084 19.9902 20.8886L19.9219 20.5371L19.4336 20.5859C18.2715 20.6933 16.9824 20.1953 16.0645 19.2871C14.3262 17.5683 14.3262 14.8437 16.0645 13.1347C17.168 12.041 18.5742 11.6211 20.0391 11.9238Z" fill="#9DB3C0"/>
<path d="M18.4375 14.9511C18.0176 15.166 17.6758 15.7422 17.6758 16.2109C17.6758 16.9336 18.418 17.6758 19.1309 17.6758C19.8828 17.6758 20.6055 16.9531 20.6055 16.2109C20.6055 15.7226 20.2637 15.166 19.8242 14.9414C19.3457 14.6972 18.9062 14.6972 18.4375 14.9511Z" fill="#9DB3C0"/>
<path d="M30.1562 14.9511C29.7363 15.166 29.3945 15.7422 29.3945 16.2109C29.3945 16.9336 30.1367 17.6758 30.8496 17.6758C31.6016 17.6758 32.3242 16.9531 32.3242 16.2109C32.3242 15.7226 31.9824 15.166 31.543 14.9414C31.0645 14.6972 30.625 14.6972 30.1562 14.9511Z" fill="#9DB3C0"/>
<path d="M22.7834 19.9412C22.8127 20.0291 22.8908 20.5467 22.9494 21.0838C23.0666 22.0213 22.9689 23.701 22.7834 24.199C22.7346 24.3064 22.7639 24.3357 22.8713 24.2869C23.3693 24.1014 25.049 24.0037 25.9865 24.1209C26.5236 24.1795 27.0412 24.2576 27.1291 24.2869C27.2365 24.3357 27.2658 24.3064 27.217 24.199C27.1877 24.1111 27.1096 23.5936 27.051 23.0564C26.9338 22.1189 27.0314 20.4392 27.217 19.9412C27.2658 19.8338 27.2365 19.8045 27.1193 19.8533C27.0412 19.8826 26.5236 19.9607 25.9865 20.0291C25.0295 20.156 23.76 20.0779 22.9592 19.8533C22.7736 19.8045 22.7346 19.824 22.7834 19.9412Z" fill="#9DB3C0"/>
<path d="M18.4375 26.6699C18.0176 26.8847 17.6758 27.4609 17.6758 27.9297C17.6758 28.6523 18.418 29.3945 19.1309 29.3945C19.8828 29.3945 20.6055 28.6718 20.6055 27.9297C20.6055 27.4414 20.2637 26.8847 19.8242 26.6601C19.3457 26.416 18.9062 26.416 18.4375 26.6699Z" fill="#9DB3C0"/>
<path d="M30.1562 26.6699C29.7363 26.8847 29.3945 27.4609 29.3945 27.9297C29.3945 28.6523 30.1367 29.3945 30.8496 29.3945C31.6016 29.3945 32.3242 28.6718 32.3242 27.9297C32.3242 27.4414 31.9824 26.8847 31.543 26.6601C31.0645 26.416 30.625 26.416 30.1562 26.6699Z" fill="#9DB3C0"/>
<path d="M8.88672 42.0897C8.88672 44.6288 8.92578 46.1718 8.99414 46.5038C9.35547 48.1835 10.7031 49.5311 12.3828 49.8925C13.1055 50.0487 36.875 50.0487 37.6172 49.8925C39.2773 49.5409 40.6543 48.1542 41.0059 46.5038C41.0742 46.1718 41.1133 44.5702 41.1133 42.0897V38.1835H25H8.88672V42.0897ZM28.6133 41.4061C29.0527 41.6307 29.3945 42.1874 29.3945 42.6757C29.3945 43.1639 29.0527 43.7206 28.6133 43.9452C28.252 44.1307 28.0469 44.1405 24.9902 44.1405C21.8164 44.1405 21.748 44.1405 21.3672 43.9257C20.3809 43.369 20.3711 42.0311 21.3477 41.4452C21.7285 41.2108 21.7383 41.2108 24.9805 41.2108C28.0469 41.2108 28.252 41.2206 28.6133 41.4061Z" fill="#9DB3C0"/>
</g>
<defs>
<clipPath id="clip0_559_3725">
<rect width="50" height="50" fill="white"/>
</clipPath>
</defs>
</svg>
