<svg width="50" height="50" viewBox="0 0 50 50" fill="none" xmlns="http://www.w3.org/2000/svg">
<g clip-path="url(#clip0_559_3711)">
<path d="M20.7515 3.11523C18.525 3.48633 16.5523 4.58984 15.2925 6.16211C14.5699 7.07031 14.1402 7.87109 13.7789 8.93555C12.8999 11.5918 13.2515 14.8633 14.7359 17.627C15.1753 18.4473 19.3062 25.957 20.4683 28.0371C21.0933 29.1504 21.3277 29.3457 22.0699 29.3457C22.8121 29.3457 23.0464 29.1504 23.6714 28.0371C25.0679 25.5371 28.9937 18.3984 29.4136 17.5977C29.9605 16.5723 30.3707 15.4297 30.6246 14.2383C30.8687 13.125 30.8687 10.7617 30.6343 9.83398C29.8335 6.62109 27.3921 4.13086 24.2671 3.32031C23.398 3.08594 21.5523 2.98828 20.7515 3.11523ZM22.9683 7.5293C23.8082 7.71484 24.5113 8.10547 25.146 8.74023C27.6753 11.2598 26.2984 15.5273 22.7632 16.1328C21.3863 16.3672 20.0289 15.9277 18.9937 14.8926C17.2554 13.1738 17.2554 10.4492 18.9937 8.74023C20.0972 7.64648 21.5132 7.2168 22.9683 7.5293Z" fill="#9DB3C0"/>
<path d="M21.3672 10.5566C20.9473 10.7715 20.6055 11.3477 20.6055 11.8164C20.6055 12.5391 21.3477 13.2812 22.0605 13.2812C22.8125 13.2812 23.5352 12.5586 23.5352 11.8164C23.5352 11.3281 23.1934 10.7715 22.7539 10.5469C22.2754 10.3027 21.8359 10.3027 21.3672 10.5566Z" fill="#9DB3C0"/>
<path d="M3.3689 17.8125C2.54858 18.0176 1.93335 18.3691 1.30835 18.9941C0.673584 19.6289 0.282959 20.3223 0.107178 21.1719C-0.0490723 21.9043 -0.0490723 42.7539 0.107178 43.4766C0.292725 44.3164 0.68335 45.0195 1.31812 45.6543C2.27515 46.6113 3.25171 46.9727 4.9314 46.9727H5.85913V32.3242V17.6758L4.86304 17.6855C4.3064 17.6855 3.64233 17.7441 3.3689 17.8125Z" fill="#9DB3C0"/>
<path d="M8.78906 32.3242V46.9727H22.0215H35.2539V41.1133V35.2539H32.3242H29.3945V37.5977C29.3945 39.7656 29.375 39.9805 29.1992 40.332C29.0723 40.5859 28.8672 40.791 28.6133 40.918C28.2422 41.1133 28.0566 41.1133 20.5957 41.1133H12.9688L12.5781 40.8984C12.3438 40.7617 12.1094 40.5273 12.002 40.3125C11.8262 39.9707 11.8164 39.668 11.8164 35.2539C11.8164 30.8301 11.8262 30.5371 12.002 30.1953C12.3633 29.4922 12.5293 29.4531 15.3516 29.3945L17.8613 29.3457L15.2637 24.6582C13.8281 22.0801 12.4023 19.4531 12.0801 18.8184L11.4941 17.6758H10.1367H8.78906V32.3242Z" fill="#9DB3C0"/>
<path d="M32.1973 18.5742C31.9629 19.0723 31.5918 19.7656 31.3867 20.1172C31.1719 20.4688 29.8145 22.9199 28.3691 25.5762C25.5078 30.8105 25.2637 31.1621 24.1309 31.7773C23.1543 32.3047 22.9395 32.3242 18.6816 32.3242H14.7461V35.2539V38.1836H20.6055H26.4648V35.8398C26.4648 33.1543 26.5137 32.9395 27.2266 32.5391C27.6074 32.3242 27.6563 32.3242 31.4355 32.3242H35.2539V25V17.6758H33.9355H32.6172L32.1973 18.5742Z" fill="#9DB3C0"/>
<path d="M38.1836 32.3242V46.9727H42.0898C44.5801 46.9727 46.1719 46.9336 46.5039 46.8652C48.1641 46.5137 49.541 45.127 49.8926 43.4766C50.0488 42.7441 50.0391 21.8945 49.8926 21.1719C49.5313 19.4922 48.1738 18.1348 46.5039 17.7832C46.1719 17.7148 44.5801 17.6758 42.0898 17.6758H38.1836V32.3242ZM43.3594 29.5898C44.043 29.9414 44.1406 30.2734 44.1406 32.3242C44.1406 34.375 44.043 34.707 43.3594 35.0586C42.8613 35.3125 42.4512 35.3027 41.9727 35.0391C41.2891 34.6484 41.2109 34.3652 41.2109 32.3047C41.2207 30.2637 41.2891 30.0293 41.9531 29.6289C42.4219 29.3457 42.8516 29.3359 43.3594 29.5898Z" fill="#9DB3C0"/>
</g>
<defs>
<clipPath id="clip0_559_3711">
<rect width="50" height="50" fill="white"/>
</clipPath>
</defs>
</svg>
