<svg width="50" height="50" viewBox="0 0 50 50" fill="none" xmlns="http://www.w3.org/2000/svg">
<g clip-path="url(#clip0_559_3718)">
<path d="M8.4668 0.0973759C7.73438 0.224329 6.99219 0.634485 6.47461 1.21066C6.14258 1.58175 5.23438 3.13449 3.34961 6.56222C1.88477 9.21847 0.683594 11.4353 0.683594 11.4743C0.683594 11.5525 18.0762 11.4548 18.1543 11.3767C18.1738 11.3474 18.4082 8.96456 18.6621 6.0837C18.916 3.19308 19.1504 0.644251 19.1699 0.409876L19.2188 -0.00028038L14.0723 0.00948524C11.25 0.0192509 8.7207 0.0583134 8.4668 0.0973759Z" fill="#9DB3C0"/>
<path d="M22.3631 0.0683594C22.3533 0.117188 22.5877 2.68555 22.8709 5.78125L23.3885 11.4258H32.1971H41.0057L38.9939 7.83203C37.9002 5.85938 36.66 3.64258 36.2498 2.89062C35.3904 1.33789 34.8338 0.693359 34.0135 0.3125L33.4471 0.0488281L27.91 0.0195312C24.8533 0.00976562 22.3631 0.0292969 22.3631 0.0683594Z" fill="#9DB3C0"/>
<path d="M5.88867 14.6191L0 14.6484L0.00976562 24.248C0.0195312 29.5215 0.0488281 35.0879 0.0878906 36.6211C0.146484 39.2773 0.166016 39.4238 0.380859 39.8438C0.683594 40.4395 1.31836 41.0742 1.9043 41.3867L2.39258 41.6504L10.9668 41.6797L19.5312 41.6992L19.4727 41.4355C19.4336 41.2793 19.3652 41.0645 19.3262 40.9375C19.1113 40.3809 18.8379 38.4082 18.7793 37.1582C18.6914 35.0391 18.9844 32.9297 19.6387 30.9082C20.0488 29.6777 21.2695 27.2656 22.0117 26.2207C24.5898 22.6465 28.4961 20.0684 32.7246 19.1504C35.3711 18.584 38.8379 18.6719 41.1621 19.3848C41.4355 19.4629 41.6602 19.5312 41.6797 19.5312C41.7285 19.5312 41.6992 16.123 41.6309 15.3516L41.5723 14.5508L26.6699 14.5703C18.4766 14.5898 9.12109 14.6094 5.88867 14.6191Z" fill="#9DB3C0"/>
<path d="M34.2772 23.0858C28.3494 24.1405 23.8768 28.7499 23.0369 34.6581C22.8905 35.6933 22.9686 38.1835 23.1834 39.1601C23.7498 41.748 24.9315 43.9648 26.7674 45.8495C28.7303 47.871 30.9764 49.1112 33.7694 49.7265C35.1854 50.039 37.744 50.039 39.1502 49.7265C41.9334 49.1015 44.0526 47.9491 46.0057 46.0058C47.9491 44.0526 49.1014 41.9335 49.7264 39.1503C50.0389 37.7441 50.0389 35.1855 49.7264 33.7694C49.3065 31.8358 48.5155 30.0487 47.3924 28.5058C46.6991 27.539 45.0096 25.8886 44.0623 25.2636C42.617 24.2968 40.9276 23.5741 39.2088 23.1933C38.2616 22.9784 35.2537 22.9101 34.2772 23.0858ZM41.9725 31.5136C42.6561 32.0214 42.8807 32.9101 42.4803 33.5644C42.3826 33.7304 40.7225 35.6835 38.8084 37.9003C36.3475 40.7421 35.2244 41.953 34.9998 42.0507C34.6092 42.2167 34.1991 42.2265 33.8182 42.0898C33.5057 41.9726 29.5506 38.0761 29.3358 37.6757C29.0233 37.08 29.2576 36.123 29.8045 35.7226C30.1268 35.498 30.8006 35.3905 31.2205 35.498C31.3866 35.537 32.0311 36.0937 32.8905 36.9433C34.2576 38.3105 34.2772 38.3202 34.4627 38.1347C34.5604 38.0273 35.8592 36.5331 37.3436 34.8144C38.867 33.0468 40.1951 31.5917 40.4002 31.4648C40.8494 31.1913 41.5721 31.2108 41.9725 31.5136Z" fill="#9DB3C0"/>
</g>
<defs>
<clipPath id="clip0_559_3718">
<rect width="50" height="50" fill="white"/>
</clipPath>
</defs>
</svg>
