<svg width="50" height="50" viewBox="0 0 50 50" fill="none" xmlns="http://www.w3.org/2000/svg">
<path d="M11.5351 7.07031C10.4312 7.29531 9.40467 8.06172 8.92654 9.03203C8.47654 9.95312 8.5117 8.61719 8.4906 24.6133C8.47654 34.45 8.49764 39.3508 8.54685 39.7305C8.63123 40.4055 9.01092 41.2563 9.45389 41.7484C9.81248 42.1562 10.4101 42.557 11.0078 42.7891L11.4648 42.9648H20.4648H29.4648L29.9429 42.8031C30.9273 42.4586 31.6304 41.8258 32.1015 40.8625C32.4672 40.1313 32.5234 39.7023 32.5234 37.7406C32.5234 35.9688 32.4812 35.7859 32.0664 35.5891C31.7781 35.4484 31.7219 35.4484 31.4406 35.582C31.0258 35.7789 31.0117 35.8211 30.9765 37.9375C30.9414 39.8078 30.9344 39.8852 30.7726 40.2156C30.5406 40.6797 30.1328 41.0734 29.6476 41.3055L29.2539 41.4883H20.5H11.7461L11.3523 41.3055C10.8672 41.0734 10.4594 40.6797 10.2273 40.2156L10.0586 39.8711L10.0375 25.0914L10.0234 10.3117L10.1711 9.925C10.3328 9.48203 10.7758 8.98281 11.2047 8.76484C11.6969 8.51172 12.0273 8.47656 13.4617 8.52578C15.1351 8.58203 15.114 8.56797 15.2687 9.46094C15.3883 10.143 15.5781 10.5086 16.014 10.9164C16.6258 11.4719 16.5625 11.4648 20.5351 11.4648H24.0508L24.4164 11.2961C24.8383 11.1133 25.3797 10.5719 25.5414 10.1781C25.5976 10.0375 25.689 9.67891 25.7383 9.39062C25.8859 8.575 25.8789 8.58203 27.5383 8.52578C28.3609 8.49766 29.0219 8.51172 29.2047 8.55391C29.8937 8.7086 30.4633 9.1586 30.7726 9.78437C30.9344 10.1148 30.9414 10.1922 30.9765 12.0625C31.0117 14.1789 31.0258 14.2211 31.4406 14.418C31.7219 14.5516 31.7781 14.5516 32.0664 14.4109C32.4812 14.2141 32.5234 14.0313 32.5234 12.2594C32.5234 10.3188 32.4601 9.87578 32.1086 9.14453C31.6586 8.20938 31.0047 7.60469 30.0203 7.225L29.5351 7.03516L20.6758 7.0211C15.8031 7.0211 11.6898 7.04219 11.5351 7.07031ZM24.339 8.65234C24.3109 8.75078 24.2758 8.97578 24.2547 9.16563C24.1984 9.5875 24.0648 9.79844 23.7695 9.925C23.4179 10.0727 17.582 10.0727 17.2304 9.925C16.9351 9.79844 16.8015 9.5875 16.7453 9.16563C16.7242 8.97578 16.689 8.75078 16.6609 8.65234L16.6187 8.47656H20.5H24.3812L24.339 8.65234Z" fill="#322C2A"/>
<path d="M27.039 17.7578C24.9718 18.7211 23.0311 19.6211 22.7288 19.7617C22.3351 19.9446 22.1593 20.0711 22.0819 20.2258C21.9905 20.4016 21.9765 21.0414 21.9905 25.0703L22.0116 29.711L22.1944 29.8867C22.3351 30.0274 25.6679 31.6164 30.5335 33.8664C30.6952 33.9367 30.9202 34 31.0257 33.993C31.3351 33.986 39.6952 30.0625 39.8499 29.8516C39.9694 29.6828 39.9765 29.4157 39.9765 25C39.9835 20.5492 39.9765 20.3172 39.8499 20.1485C39.7796 20.05 39.639 19.9375 39.5475 19.8883C37.7124 18.9953 31.2296 16.0492 31.0468 16.0282C30.8429 16.0071 30.1397 16.3094 27.039 17.7578ZM34.2179 19.0657C35.9335 19.8602 37.3608 20.5352 37.389 20.5563C37.41 20.5844 36.9952 20.8094 36.4679 21.0485L35.4976 21.4985L32.3616 20.0008C30.6319 19.1852 29.2186 18.4891 29.2186 18.461C29.2186 18.3977 30.8358 17.6313 30.9835 17.6242C31.0397 17.6172 32.4952 18.2711 34.2179 19.0657ZM30.5265 20.7953C32.2421 21.611 33.6483 22.3 33.6483 22.3211C33.6483 22.3844 31.089 23.5516 30.9765 23.5375C30.9202 23.5375 30.0343 23.1367 29.0077 22.6657C27.9811 22.1875 26.5679 21.5266 25.8647 21.1961C25.1616 20.8727 24.6061 20.5844 24.6343 20.5563C24.6976 20.493 27.271 19.3047 27.3413 19.3047C27.3765 19.3047 28.8108 19.9727 30.5265 20.7953ZM27.2147 23.4813L30.1679 24.8524L30.189 28.4524C30.203 31.3211 30.189 32.0383 30.1186 32.0102C30.0272 31.975 26.7226 30.4352 24.6483 29.4719L23.5585 28.9586L23.5374 25.3657L23.5233 21.7727L23.889 21.9414C24.0929 22.0328 25.5905 22.7219 27.2147 23.4813ZM38.4507 28.9446C38.3804 29.0078 31.8694 32.0313 31.7991 32.0313C31.771 32.0313 31.7499 30.4282 31.7499 28.4594V24.8946L33.1491 24.2477C33.9155 23.8891 34.5905 23.5797 34.6608 23.5516C34.7593 23.5094 34.7733 23.6289 34.7733 24.7891V26.0688L34.9772 26.2727C35.2022 26.4907 35.5327 26.5399 35.8491 26.3992C36.1866 26.2446 36.2147 26.125 36.2499 24.4094L36.285 22.7922L37.3749 22.286L38.4647 21.7727L38.4858 25.3375C38.4929 27.2922 38.4788 28.9164 38.4507 28.9446Z" fill="#322C2A"/>
</svg>
