<svg width="21" height="21" viewBox="0 0 21 21" fill="none" xmlns="http://www.w3.org/2000/svg">
<path d="M8.74192 0.0313702C7.23801 0.202269 6.31028 0.461058 5.22629 1.00305C4.32297 1.45715 3.64914 1.93078 2.91672 2.63391C-0.0422622 5.47571 -0.81863 9.90442 1.01243 13.5519C3.01438 17.5363 7.45286 19.5675 11.7497 18.4591C12.9314 18.1515 13.9519 17.6534 15.1677 16.7745C15.2214 16.7404 15.7097 17.1993 17.2478 18.7325C19.4743 20.9493 19.4695 20.9445 19.9822 20.8859C20.6267 20.8077 21.0222 20.1925 20.8513 19.548C20.7927 19.3331 20.6267 19.1525 18.7566 17.2726C17.2087 15.7198 16.74 15.2169 16.7741 15.1681C17.7263 13.8595 18.2829 12.6388 18.5857 11.2228C18.7419 10.4757 18.8005 9.07434 18.7077 8.32239C18.5417 6.99426 18.0974 5.6759 17.4577 4.61633C16.4714 2.99035 15.1384 1.76965 13.4538 0.954222C12.531 0.509886 11.7693 0.270628 10.8025 0.124144C10.3288 0.0509014 9.06418 -0.00769234 8.74192 0.0313702ZM10.8562 2.24328C12.7702 2.64856 14.362 3.71789 15.4363 5.31457C17.0964 7.78528 17.0964 10.9542 15.446 13.4493C15.0066 14.1134 14.113 15.007 13.4489 15.4464C12.0622 16.3644 10.4509 16.7843 8.82493 16.6525C6.25657 16.4425 4.03977 14.9581 2.89719 12.6827C1.20774 9.3136 2.32102 5.2511 5.49973 3.21496C6.30051 2.70227 7.43821 2.29211 8.45383 2.15051C8.98606 2.07727 10.3142 2.1261 10.8562 2.24328Z" fill="#787474"/>
</svg>
