<svg width="50" height="50" viewBox="0 0 50 50" fill="none" xmlns="http://www.w3.org/2000/svg">
<path d="M22.7542 0.0977821C17.9299 0.566532 13.4768 2.34388 9.57056 5.35169C7.66626 6.81653 5.19556 9.57044 3.76978 11.8165C3.15454 12.7833 1.95337 15.2443 1.52368 16.4161C1.04517 17.7247 0.527588 19.7365 0.273682 21.2892C-0.0290527 23.1935 -0.0290527 26.8068 0.273682 28.7111C0.713135 31.4064 1.40649 33.5743 2.58814 35.9865C3.8772 38.6134 5.21509 40.4786 7.36353 42.6368C9.52173 44.7853 11.387 46.1232 14.0139 47.4122C16.426 48.5939 18.594 49.2872 21.2893 49.7267C23.1936 50.0294 26.8069 50.0294 28.7112 49.7267C31.4065 49.2872 33.5745 48.5939 35.9866 47.4122C38.6135 46.1232 40.4788 44.7853 42.637 42.6368C44.7854 40.4786 46.1233 38.6134 47.4124 35.9865C48.2717 34.2384 48.7014 33.0958 49.1702 31.338C49.7854 28.9943 49.9319 27.715 49.9319 25.0001C49.9319 22.2853 49.7854 21.006 49.1702 18.6622C48.7014 16.9044 48.2717 15.7618 47.4124 14.0138C46.1233 11.3868 44.7854 9.52161 42.637 7.36341C40.4788 5.21497 38.6135 3.87708 35.9866 2.58802C33.5842 1.40638 31.3577 0.703251 28.76 0.293095C27.3245 0.0684853 24.1213 -0.0389366 22.7542 0.0977821ZM21.6799 12.7052C22.012 12.8517 23.3889 14.17 27.3733 18.1447C30.2639 21.0255 32.7737 23.5841 32.9397 23.8282C33.2229 24.2286 33.2522 24.3361 33.2522 25.0001C33.2522 25.6642 33.2229 25.7716 32.9397 26.172C32.7737 26.4161 30.2639 28.9747 27.3733 31.8556C21.8459 37.3732 21.6995 37.4904 20.8499 37.5001C20.4202 37.5001 19.5706 37.1486 19.3167 36.8556C19.0334 36.5333 18.7502 35.8107 18.7502 35.4005C18.7502 34.5607 18.9163 34.3654 23.7112 29.5607L28.2717 25.0001L23.7112 20.4298C18.9163 15.6349 18.7502 15.4396 18.7502 14.5997C18.7502 14.1896 19.0334 13.4669 19.3167 13.1447C19.5706 12.8517 20.4202 12.5001 20.8499 12.5001C21.0647 12.5001 21.4358 12.5978 21.6799 12.7052Z" fill="#C0CEDA"/>
</svg>
