<svg width="50" height="50" viewBox="0 0 50 50" fill="none" xmlns="http://www.w3.org/2000/svg">
<g clip-path="url(#clip0_559_3740)">
<path d="M27.2456 49.9022C32.0698 49.4335 36.5229 47.6561 40.4292 44.6483C42.3335 43.1835 44.8042 40.4296 46.23 38.1835C46.8452 37.2167 48.0464 34.7557 48.4761 33.5839C48.9546 32.2753 49.4722 30.2635 49.7261 28.7108C50.0288 26.8065 50.0288 23.1932 49.7261 21.2889C49.2866 18.5936 48.5933 16.4257 47.4116 14.0135C46.1226 11.3866 44.7847 9.52136 42.6362 7.36316C40.478 5.21472 38.6128 3.87683 35.9858 2.58777C33.5737 1.40613 31.4058 0.712767 28.7104 0.273314C26.8062 -0.029421 23.1929 -0.0294213 21.2886 0.273313C18.5933 0.712766 16.4253 1.40612 14.0132 2.58777C11.3862 3.87683 9.52099 5.21472 7.36279 7.36315C5.21435 9.52136 3.87646 11.3866 2.5874 14.0135C1.72802 15.7616 1.29833 16.9042 0.829584 18.662C0.214349 21.0057 0.0678644 22.285 0.0678642 24.9999C0.0678639 27.7147 0.214348 28.994 0.829582 31.3378C1.29833 33.0956 1.72802 34.2382 2.58739 35.9862C3.87646 38.6132 5.21435 40.4784 7.36279 42.6366C9.52099 44.785 11.3862 46.1229 14.0132 47.412C16.4155 48.5936 18.6421 49.2967 21.2397 49.7069C22.6753 49.9315 25.8784 50.0389 27.2456 49.9022ZM28.3198 37.2948C27.9878 37.1483 26.6108 35.83 22.6265 31.8553C19.7358 28.9745 17.2261 26.4159 17.0601 26.1717C16.7769 25.7714 16.7476 25.6639 16.7476 24.9999C16.7476 24.3358 16.7769 24.2284 17.0601 23.828C17.2261 23.5839 19.7358 21.0253 22.6265 18.1444C28.1538 12.6268 28.3003 12.5096 29.1499 12.4999C29.5796 12.4999 30.4292 12.8514 30.6831 13.1444C30.9663 13.4667 31.2495 14.1893 31.2495 14.5995C31.2495 15.4393 31.0835 15.6346 26.2886 20.4393L21.728 24.9999L26.2886 29.5702C31.0835 34.3651 31.2495 34.5604 31.2495 35.4003C31.2495 35.8104 30.9663 36.5331 30.6831 36.8553C30.4292 37.1483 29.5796 37.4999 29.1499 37.4999C28.9351 37.4999 28.564 37.4022 28.3198 37.2948Z" fill="#EAE9EA"/>
</g>
<defs>
<clipPath id="clip0_559_3740">
<rect width="50" height="50" fill="white" transform="translate(50 50) rotate(-180)"/>
</clipPath>
</defs>
</svg>
