<svg width="50" height="50" viewBox="0 0 50 50" fill="none" xmlns="http://www.w3.org/2000/svg">
<g clip-path="url(#clip0_559_1875)">
<path d="M18.8125 5.2265L18.5547 5.45307V7.48432C18.5547 9.51556 18.5547 9.51556 18.7422 9.71869C18.9766 9.96088 19.3125 10.0468 19.6172 9.92181C20.0469 9.74213 20.0781 9.57806 20.0781 7.46088C20.0781 6.289 20.0469 5.4765 20 5.38275C19.8984 5.19525 19.5234 4.99994 19.2656 4.99994C19.1562 4.99994 18.9531 5.1015 18.8125 5.2265Z" fill="#322C2A"/>
<path d="M22.5312 5.2655L22.2656 5.53112V8.78112C22.2656 12.2577 22.2812 12.3749 22.6484 12.578C22.9531 12.7342 23.3594 12.6717 23.6016 12.4296L23.8281 12.203V8.91394C23.8281 5.3905 23.8203 5.31237 23.4297 5.10925C23.0781 4.92956 22.8203 4.97644 22.5312 5.2655Z" fill="#322C2A"/>
<path d="M29.5391 6.875C27.1797 7.49219 25.7344 9.89062 26.2891 12.2578C26.4766 13.0391 26.9063 13.7891 27.5313 14.4141C28.4141 15.2891 29.4219 15.7031 30.6641 15.7031C31.9375 15.7031 32.9297 15.2891 33.836 14.375C34.7422 13.4609 35.1563 12.4766 35.1563 11.2266C35.1563 8.28125 32.3829 6.13281 29.5391 6.875ZM31.5704 8.4375C32.2266 8.64844 32.75 9.03906 33.125 9.61719C34.1016 11.125 33.5235 13.1328 31.8907 13.8906C31.5 14.0781 31.3438 14.1016 30.6641 14.1016C29.9766 14.1016 29.8282 14.0781 29.4375 13.8906C28.8594 13.625 28.2969 13.0547 28 12.4609C27.7969 12.0391 27.7735 11.9141 27.7735 11.25C27.7735 10.5781 27.7969 10.4609 28.0157 10C28.6719 8.625 30.1329 7.98437 31.5704 8.4375Z" fill="#322C2A"/>
<path d="M18.3594 13.6327C16.711 13.9999 15.3438 15.3593 14.9532 16.9999C14.8673 17.3827 14.836 17.7499 14.8673 18.2812C14.9141 19.1562 15.1094 19.789 15.5548 20.4687C15.7188 20.7265 15.8594 20.9609 15.8594 20.9765C15.8594 20.9999 14.9298 21.0156 13.7969 21.0156C11.961 21.0156 11.6798 21.0312 11.2344 21.1718C9.79694 21.6093 8.711 22.8984 8.51569 24.3749C8.43757 25.0234 8.38493 38.9609 8.46305 39.3515C8.58024 39.9452 8.56575 35.0624 9.01888 34.6718L8.78993 36.8671L10.0391 41.6015L10.0079 27.1327C10.0391 24.8046 10.0704 24.3593 10.1876 24.0546C10.3829 23.5234 10.7969 23.0859 11.3516 22.8124L11.836 22.5781L23.3594 22.5937L34.8829 22.6171L35.2579 22.8124C35.711 23.039 36.1329 23.4843 36.3594 23.9765C36.5157 24.3124 36.5235 24.4765 36.5469 26.6952L36.5704 29.0546L32.1719 29.0781C27.8673 29.1093 27.7657 29.1093 27.2579 29.2812C25.0079 30.0312 23.9063 32.5781 24.9298 34.6718C25.2423 35.3124 25.961 36.0781 26.5469 36.3906C27.4454 36.8749 27.4923 36.8749 32.2501 36.8749H36.5704L36.5469 39.2421L36.5235 41.6015L36.2657 42.1327C36.0782 42.4999 35.8985 42.7343 35.6485 42.9296C34.9376 43.4687 35.7032 43.4452 23.1173 43.4218L11.7579 43.3984L11.3985 43.2187C10.8985 42.9765 10.4844 42.5546 10.2423 42.039L10.0391 41.6015L10.0079 27.1327L9.89069 31.5312L9.7735 35.9296C10.0079 27.1327 9.33138 33.2734 9.01888 33.4374C9.01888 33.4374 8.42194 36.2421 8.461 39.1796C8.48444 41.5624 8.50007 41.7968 8.65632 42.2734C8.98444 43.2656 9.70319 44.1015 10.6407 44.5781C11.5001 45.0156 10.8907 44.9999 24.9688 44.9999C33.4766 44.9999 38.0938 44.9687 38.3673 44.9218C39.7188 44.664 40.8907 43.6249 41.3438 42.2734L41.5235 41.7577L41.5469 33.4374C41.5626 28.1952 41.5391 24.8827 41.4923 24.4765C41.2969 22.8749 40.2188 21.6015 38.6798 21.1406C38.2969 21.0312 37.3985 21.0156 30.4844 21.0156H22.7188L22.9141 20.7499C24.2501 18.9999 24.0704 16.414 22.5079 14.8515C21.4532 13.7968 19.7969 13.3046 18.3594 13.6327ZM20.5079 15.3437C21.1173 15.6171 21.7266 16.2265 22.0001 16.8202C22.2032 17.2421 22.2266 17.3906 22.2266 18.0468C22.2266 18.6874 22.1954 18.8515 22.0235 19.2187C21.7423 19.8124 21.2657 20.3202 20.7266 20.6093C19.2423 21.3984 17.4454 20.8202 16.7032 19.3124C16.461 18.8281 16.4454 18.7343 16.4454 18.0077C16.4454 17.3124 16.4688 17.1796 16.6641 16.7812C17.0469 16.0077 17.8282 15.3671 18.6485 15.1562C19.1485 15.0312 20.0235 15.1171 20.5079 15.3437ZM38.6563 22.8202C39.1954 23.0859 39.6094 23.5312 39.8204 24.0702C39.9298 24.3593 39.961 24.7812 39.9844 26.7343L40.0157 29.0624H39.0704H38.1251V26.9296C38.1251 24.4374 38.0704 23.9999 37.6719 23.1796L37.3751 22.5781H37.7735C38.0704 22.5781 38.3126 22.6406 38.6563 22.8202ZM39.9844 32.9843L40.0001 35.3124H34.0001C27.2813 35.3124 27.5782 35.3359 26.9141 34.7499C26.7188 34.5781 26.461 34.2499 26.3438 34.0312C26.0626 33.4843 26.0469 32.5624 26.3126 32.0234C26.6407 31.3515 27.2891 30.8437 27.9923 30.7031C28.1719 30.6718 30.9376 30.6484 34.1407 30.6562L39.961 30.664L39.9844 32.9843ZM39.961 39.2577V41.6015L39.7579 42.039C39.3751 42.8437 38.6798 43.3359 37.8048 43.414L37.3204 43.4609L37.5313 43.1093C37.6407 42.9218 37.8126 42.5546 37.9063 42.2968C38.0626 41.8671 38.0782 41.6718 38.1094 39.3515L38.1407 36.8671L39.0469 36.8906L39.961 36.914V39.2577Z" fill="#322C2A"/>
<path d="M27.8905 32.3282C27.5077 32.5157 27.3593 32.9297 27.539 33.3047C27.7734 33.7969 28.3749 33.9063 28.7577 33.5235C29.1562 33.125 29.0155 32.4532 28.4999 32.2735C28.1952 32.1641 28.2109 32.1641 27.8905 32.3282Z" fill="#322C2A"/>
<path d="M8.92977 32.3045C8.42977 32.5155 8.33602 33.1639 8.74227 33.5311C9.07821 33.8358 9.46102 33.828 9.77352 33.5233C10.172 33.1248 10.0313 32.453 9.51571 32.2733C9.21883 32.1717 9.23446 32.1717 8.92977 32.3045Z" fill="#322C2A"/>
</g>
<defs>
<clipPath id="clip0_559_1875">
<rect width="40" height="40" fill="white" transform="translate(5 5)"/>
</clipPath>
</defs>
</svg>
